<svg height="600" version="1.1" width="800" xmlns="http://www.w3.org/2000/svg" preserveAspectRatio="xMidYMid meet" viewBox="0 0 600 442" xmlns:xlink="http://www.w3.org/1999/xlink"><desc>Created with Snap</desc><defs/><g id="root" contentwidth="288.9" contentheight="172">
          <rect class="background" height="2000%" width="2000%" y="-1000%" x="-1000%" style="" fill="#f7a808"/>
          <g class="content" id="content" transform="matrix(1,0,0,1,23.55,27)" style="filter: url(#allblackwhite);">
            <g class="icon">
            <svg height="172" version="1.1" width="181" xmlns="http://www.w3.org/2000/svg" x="132" y="108" preserveAspectRatio="none" transform="matrix(1,0,0,1,0,0)"><desc>Created with Snap</desc><defs/><svg xmlns="http://www.w3.org/2000/svg" viewBox="113 108 181 172"><path d="M240.96 117.438c3.282.234 6.983.751 9.327 1.318 2.91.693 4.014 1.006 6.104 1.709 2.52.85 3.945 1.435 6.298 2.578 2.735 1.328 5 2.666 7.91 4.678 1.182.81 3.985 2.314 4.932 2.656 2.266.8 4.473 1.28 6.69 1.465.43.03 1.152.117 1.611.195.459.068 1.172.156 1.582.195 1.357.118 3.584.89 4.57 1.592 1.387.987 2.998 2.89 3.662 4.336.567 1.24.782 3.867.499 6.113-.362 2.793-1.446 6.163-2.54 7.872-.644 1.005-1.982 2.724-3.115 4.013-5.156 5.83-10.156 9.63-20.088 15.274-1.23.693-2.646 1.601-3.418 2.168-1.748 1.308-3.476 2.51-5.634 3.935-2.364 1.572-2.588 1.71-4.913 3.047-3.183 1.826-5.917 3.164-9.619 4.717-.537.234-1.23.527-1.533.654-.312.137-.84.342-1.172.469-.342.127-1.054.42-1.592.644-.537.225-1.19.489-1.464.586-.264.098-1.172.45-2.002.782-.83.332-1.817.712-2.198.84-1.21.43-2.724.927-3.222 1.064-.264.068-.967.264-1.563.42-1.26.342-2.558.644-3.515.84-.371.078-1.25.254-1.953.4-2.872.586-5.694.879-10.645 1.123a96.35 96.35 0 0 0-1.69.102l-.22.016a3.581 3.581 0 0 0-.287.029c-.088.029-.987.136-2.002.244-.473.05-.873.091-1.265.13l-.336.032c-.955.09-1.978.173-4.014.326-.723.049-2.022.176-2.881.283-.86.108-1.934.244-2.393.293l-.14.018c-.81.098-1.91.173-5.866.431-1.23.079-2.373.166-2.539.196-.156.029-1.103.117-2.1.195-.996.088-1.962.195-2.148.234a9.151 9.151 0 0 1-.83.157c-.264.029-.732.127-1.025.195-.293.078-1.807.45-3.37.84-2.714.664-4.082 1.074-5.566 1.65a239.961 239.961 0 0 0-4.13 1.67l-.501.205-.2.08a2.456 2.456 0 0 1-.257.096c-.098 0-1.979.961-3.905 1.976l-.482.254c-1.361.72-2.673 1.429-3.318 1.803-1.846 1.065-3.555 2.422-5.635 4.473-2.988 2.949-4.404 4.873-6.279 8.535-.45.86-.937 1.895-1.103 2.295-.635 1.562-1.104 2.695-1.192 2.88-.234.499-1.006 2.598-1.416 3.82-.322.956-.43 1.444-.39 1.66.029.165-.01.615-.098 1.005-.195.918-.186 1.397.039 2.695.205 1.163.371 1.67 1.23 3.858.303.781.664 1.7.801 2.05.488 1.27 2.031 4.19 2.96 5.567 1.513 2.256 2.88 4.912 3.788 7.373.225.586.537 1.426.703 1.856.46 1.2.743 2.148.996 3.32.169.818.212 1.162.217 2.763v.695l-.002.546c-.01 2.832-.02 2.988-.312 4.59-.45 2.46-.723 3.545-1.494 5.85-1.211 3.642-3.223 7.236-4.98 8.886-.948.889-1.329 1.035-2.032.791a11.77 11.77 0 0 0-.938-.283c-.263-.069-.79-.274-1.171-.45-.372-.165-.85-.37-1.045-.439-.83-.303-2.48-1.182-3.32-1.767-1.495-1.055-3.116-2.745-4.083-4.288-.244-.38-.498-.78-.566-.878-.332-.528-1.348-2.666-1.738-3.663l-.21-.528-.09-.22a3.662 3.662 0 0 0-.17-.394c-.019-.02-.194.283-.4.674-.195.39-.693 1.21-1.103 1.826-2.188 3.31-6.436 6.22-10.86 7.422l-1.855.498c-.713.195-1.367.44-1.797.683-.83.479-1.308.635-1.738.547-.44-.078-1.074-.625-1.28-1.103-.063-.168-.271-.65-.494-1.156l-.15-.338c-.762-1.758-1.28-3.311-1.533-4.561-.83-4.238-1.065-7.178-.86-10.674.069-1.21.157-2.373.186-2.588.625-4.12 2.53-8.447 5.606-12.695l.201-.274.189-.252c.685-.913 1.893-2.488 1.963-2.55.03-.03.264-.313.537-.635 1.465-1.777 4.6-5 7.695-7.9 1.983-1.856 2.715-2.793 3.047-3.887.137-.459.137-.772.04-2.617-.045-.855-.067-2.364-.069-4.022v-.718l.001-.364.004-.729c.016-2.55.074-5.032.161-5.74.049-.488.147-1.494.205-2.246.059-.752.147-1.63.195-1.953.06-.322.166-1.113.245-1.758.263-2.07.341-2.52 1.074-6.347.156-.781.781-3.428 1.172-4.883l.041-.163.086-.329c.098-.378.19-.725.224-.875.196-.773.727-2.477 1.295-4.21l.214-.65c.645-1.942 1.29-3.778 1.509-4.222.038-.084.14-.345.254-.63l.097-.25c.225-.605.791-1.972 1.163-2.831.078-.166.273-.625.449-1.026 1.592-3.72 4.511-9.209 7.05-13.232 3.545-5.605 6.817-9.912 11.592-15.234 2.364-2.637 6.7-6.866 9.278-9.043.293-.254.869-.743 1.27-1.084 1.562-1.328 4.17-3.36 6.933-5.371.23-.169.979-.674 1.903-1.289l.475-.315a276.018 276.018 0 0 1 4.018-2.625 752.04 752.04 0 0 0 2.588-1.66c2.676-1.719 4.541-2.852 7.031-4.238 1.582-.889 6.075-3.164 7.52-3.809.4-.186.996-.459 1.318-.605 1.133-.518 3.653-1.563 4.688-1.944.273-.097.732-.273 1.025-.39 2.569-.996 6.055-2.09 9.57-2.989a96.059 96.059 0 0 1 1.48-.37l.347-.08c.58-.134 1.193-.265 2.324-.507 2.012-.42 6.22-1.064 7.764-1.181a31.07 31.07 0 0 0 1.543-.157c1.68-.244 7.666-.283 10.566-.088Zm4.618 47.34a7.664 7.664 0 0 0-.584.227l-.246.104c-3.906 1.758-9.814 3.31-16.016 4.21-.47.068-1.074.159-1.447.22l-.144.024c-.182.03-.397.062-.7.1l-.214.026c-.115.014-.241.029-.38.044l-.297.033c-.63.07-1.495.16-2.726.285-1.865.185-4.765.293-10.84.39l-.66.012-.66.013c-2.85.054-5.527.12-6.297.17-5.107.303-9.619 1.055-13.916 2.315a39.63 39.63 0 0 1-1.465.42c-.122.032-.319.093-.569.176l-.324.108a85.87 85.87 0 0 0-1.626.569l-.514.186c-.857.311-1.697.627-2.24.846-2.764 1.123-7.588 3.506-10.04 4.97-.517.313-.976.567-1.005.567-.02 0-.166.078-.313.186a78.64 78.64 0 0 1-1.337.85c-2.422 1.503-5.069 3.407-6.875 4.95-1.885 1.602-4.6 4.453-6.065 6.358-.205.263-.068.175.986-.625.47-.352.957-.713 1.075-.801.101-.07.415-.29.757-.536l.258-.187c3.78-2.695 8.272-5.127 12.744-6.875.723-.283 1.456-.566 1.612-.634a3.74 3.74 0 0 1 .586-.206c.166-.039.341-.097.39-.136.072-.054 1.498-.518 3.043-.994l.424-.13c1.582-.488 5.322-1.357 7.91-1.855a207.98 207.98 0 0 1 4.004-.742c1.65-.293 3.33-.566 4.492-.723.567-.088 1.28-.195 1.582-.254.606-.107 2.11-.293 4.131-.527.703-.078 1.67-.185 2.158-.244.339-.04 1-.105 1.685-.166l.458-.04.445-.038.966-.08.588-.049c4.057-.336 4.811-.405 5.126-.457.215-.03 1.23-.117 2.246-.195 4.395-.352 9.58-1.114 11.963-1.758 5.898-1.592 8.154-2.559 12.012-5.156a37.728 37.728 0 0 0 5.185-4.15c.352-.333.723-.675.83-.753.205-.156.196-.166-.156-.049Zm40.934 4.509c.869.16 1.44.355 2.352.803 2.577 1.26 4.4 3.8 4.856 6.752a9.98 9.98 0 0 1-.933 5.92c-1.368 2.757-3.959 4.748-6.854 5.276-.694.123-2.482.123-3.184 0-2.735-.492-5.189-2.388-6.368-4.928-.558-1.195-.768-1.983-.883-3.279-.312-3.38 1.201-6.766 3.93-8.8 1.382-1.035 2.742-1.563 4.805-1.882.376-.057 1.642.022 2.28.138Zm-44.908-35.271c-.83.214-1.387.488-1.983.966-1.377 1.094-2.04 2.364-2.129 4.092-.039.899-.02 1.084.215 1.807 1.172 3.613 5.654 4.56 8.418 1.787.86-.86 1.309-1.719 1.543-2.959.166-.84.166-.938.02-1.709-.225-1.123-.655-1.953-1.368-2.666-.752-.742-1.289-1.055-2.256-1.309-.937-.254-1.543-.254-2.46-.01Zm-62.606-21.461c1.816.097 2.158.136 4.443.43 2.432.322 5.196.888 7.764 1.6.38.099 1.63.43 2.783.733 2.998.791 4.375 1.25 6.426 2.159 1.299.585 2.89 1.543 3.213 1.943.098.117.342.322.547.45.195.116.361.253.361.282 0 .04-.85.44-1.885.889-1.025.459-2.402 1.074-3.046 1.387l-.408.19-.426.2c-.425.2-.83.391-1.07.508-4.61 2.168-8.526 4.15-10.294 5.235-.361.214-.683.4-.693.4-.018 0-.389.221-.85.507l-.127.079c-.517.322-.966.586-.996.586-.039 0-.136.058-.215.137-.088.078-.507.322-.937.546l-.122.065c-1.185.632-2.675 1.598-9.585 6.205-3.438 2.295-4.297 2.822-4.492 2.783-.4-.078-1.29-.478-1.807-.83-.264-.166-.527-.312-.586-.312-.137 0-2.998-1.407-3.965-1.954a37.35 37.35 0 0 1-5.42-3.76c-3.252-2.734-5.205-5.654-5.38-8.056-.03-.4-.127-.947-.206-1.21-.205-.665-.068-1.075.743-2.16 2.47-3.28 6.074-5.722 10.752-7.275 4.59-1.523 9.482-2.08 15.478-1.757Zm100.964-4.483a6.92 6.92 0 0 1 3.806 2.807c.21.316.427.697.493.842.539 1.308.611 1.67.611 2.99 0 1-.013 1.131-.184 1.703-.578 1.926-1.886 3.38-3.694 4.09-.48.19-1.571.387-2.137.387-1.36 0-2.748-.486-3.93-1.387-2.256-1.696-3.235-4.72-2.4-7.389.664-2.123 2.314-3.635 4.522-4.148.618-.138 2.295-.079 2.913.105Z" id="prefix-p55-形状结合" fill="#ffffff" fill-rule="nonzero" style="" stroke="#000000" paint-order="stroke"/><desc>Created with Snap</desc><defs/></svg></svg></g>
            <g id="icon_name_and_slogan_gap">
            <use xlink:href="#name_and_slogan_id" stroke-width="2" stroke="#f7a808"/></g>
            <g class="name_and_slogan" id="name_and_slogan_id">
              <g class="name"><g id="nameDefaultGroup"><path d="M233.6 210.6 L254.1 269.1 L235.9 269.1 L229.1 250.5 L211.3 250.5 L205.3 269.1 L195.5 269.1 L216.1 210.6 L233.6 210.6 M212.8 245 L227.6 245 L219.8 223.4 L212.8 245 M299.8 210.8 Q305.4 210.8 308.4 213.9 Q311.5 217 311.5 222.5 L311.5 222.5 L311.5 257.1 Q311.5 262.3 308.5 265.5 Q305.5 268.8 299.8 268.8 L299.8 268.8 L259.5 268.8 L259.5 210.8 L299.8 210.8 M267.9 263.4 L294.1 263.4 L294.1 216.3 L267.9 216.3 L267.9 263.4 M327.8 210.6 L345.8 248.9 L345.8 210.6 L364.5 210.6 L364.5 269.3 L346.6 269.3 L328 230.9 L328 269.3 L319.3 269.3 L319.3 210.6 L327.8 210.6 M389.9 263.8 L420.9 263.8 L420.9 269.1 L372.4 269.1 L372.4 210.4 L420.9 210.4 L420.9 215.9 L389.9 215.9 L389.9 263.8 Z" style="" fill="#ffffff" transform="matrix(1,0,0,1,0,0)"/></g></g>
              <g class="slogan"><g id="sloganDefaultGroup"/></g>
            </g>
            <g class="border">
            </g>
          </g>
          
          <defs id="defs">
            <mask xmlns="http://www.w3.org/2000/svg" id="mask">
                <rect id="showAll" fill="white" x="132" y="108" width="181" height="172"/>
                <rect id="hideNameBg" fill="black" x="0" y="0" width="0" height="0" stroke-width="2" stroke="black"/>
                <rect id="hideSloganBg" fill="black" x="0" y="0" width="0" height="0" stroke-width="2" stroke="black"/>
            </mask>
          
                                                    <filter xmlns="http://www.w3.org/2000/svg" id="allblackwhite">
                                                        <feColorMatrix type="matrix" values="0 1 0 0 0                         0 1 0 0 0                         0 1 0 0 0                         0 1 0 1 0 "/>
                                                    </filter>
                                                </defs>
          
        </g>
        </svg>