<svg class="icon" viewBox="0 0 1024 1024" xmlns="http://www.w3.org/2000/svg" width="64" height="64"><defs><style/></defs><path d="M931.6 585.6v79c28.6-60.2 44.8-127.4 44.8-198.4C976.4 211 769.4 4 514.2 4S52 211 52 466.2c0 3.2.2 6.4.2 9.6l166-206h96.4L171.8 485.6h46.4v-54.8l99.2-154.6V668h-99.2v-82.4H67.6c43 161 170.6 287.4 332.4 328.6-10.4 26.2-40.6 89.4-90.8 100.6-62.2 14 168.8 3.4 333.6-104.6C769.4 873.6 873.6 784.4 930.2 668h-97.6v-82.4H666.4V476l166.2-206.2h94L786.2 485.6h46.4v-59l99.2-154v313zM366.2 608c-4.8-11.2-7.2-23.2-7.2-36V357.6c0-12.8 2.4-24.8 7.2-36 4.8-11.2 11.4-21 19.6-29.2 8.2-8.2 18-14.8 29.2-19.6 11.2-4.8 23.2-7.2 36-7.2h81.6c12.8 0 24.8 2.4 36 7.2 11 4.8 20.6 11.2 28.8 19.2l-88.6 129.4v-23c0-4.8-1.6-8.8-4.8-12-3.2-3.2-7.2-4.8-12-4.8s-8.8 1.6-12 4.8c-3.2 3.2-4.8 7.2-4.8 12v72L372.6 620c-2.4-3.8-4.6-7.8-6.4-12zm258.2-36c0 12.8-2.4 24.8-7.2 36-4.8 11.2-11.4 21-19.6 29.2-8.2 8.2-18 14.8-29.2 19.6-11.2 4.8-23.2 7.2-36 7.2h-81.6c-12.8 0-24.8-2.4-36-7.2-11.2-4.8-21-11.4-29.2-19.6-3.6-3.6-7-7.8-10-12l99.2-144.6v50.6c0 4.8 1.6 8.8 4.8 12 3.2 3.2 7.2 4.8 12 4.8s8.8-1.6 12-4.8c3.2-3.2 4.8-7.2 4.8-12v-99.6L601 296.4c6.6 7.4 12 15.8 16 25.2 4.8 11.2 7.2 23.2 7.2 36V572z"/></svg>