<svg class="icon" viewBox="0 0 1024 1024" xmlns="http://www.w3.org/2000/svg" width="128" height="128"><defs><style/></defs><path d="M254.72 473.6c-3.84-2.56-8.96-2.56-16.64-2.56H224v28.16h15.36c7.68 0 12.8-1.28 16.64-3.84 2.56-2.56 5.12-6.4 5.12-10.24-1.28-6.4-2.56-8.96-6.4-11.52zm2.56 51.2c-2.56-2.56-8.96-3.84-17.92-3.84h-16.64v33.28h17.92c7.68 0 14.08-1.28 16.64-5.12 2.56-3.84 5.12-7.68 5.12-12.8s-1.28-8.96-5.12-11.52zm101.12 6.4c-8.96 0-14.08 1.28-17.92 5.12-3.84 2.56-5.12 6.4-5.12 11.52 0 3.84 1.28 7.68 3.84 8.96 2.56 1.28 5.12 2.56 8.96 2.56 6.4 0 10.24-1.28 14.08-5.12s6.4-7.68 6.4-14.08v-7.68l-10.24-1.28zm354.56-29.44c-2.56-3.84-7.68-6.4-14.08-6.4-5.12 0-8.96 1.28-12.8 5.12s-5.12 8.96-6.4 15.36h37.12c0-6.4-1.28-10.24-3.84-14.08zm0 0c-2.56-3.84-7.68-6.4-14.08-6.4-5.12 0-8.96 1.28-12.8 5.12s-5.12 8.96-6.4 15.36h37.12c0-6.4-1.28-10.24-3.84-14.08zM358.4 531.2c-8.96 0-14.08 1.28-17.92 5.12-3.84 2.56-5.12 6.4-5.12 11.52 0 3.84 1.28 7.68 3.84 8.96 2.56 1.28 5.12 2.56 8.96 2.56 6.4 0 10.24-1.28 14.08-5.12s6.4-7.68 6.4-14.08v-7.68l-10.24-1.28zm-101.12-6.4c-2.56-2.56-8.96-3.84-17.92-3.84h-16.64v33.28h17.92c7.68 0 14.08-1.28 16.64-5.12 2.56-3.84 5.12-7.68 5.12-12.8s-1.28-8.96-5.12-11.52zm-2.56-51.2c-3.84-2.56-8.96-2.56-16.64-2.56H224v28.16h15.36c7.68 0 12.8-1.28 16.64-3.84 2.56-2.56 5.12-6.4 5.12-10.24-1.28-6.4-2.56-8.96-6.4-11.52zm0 0c-3.84-2.56-8.96-2.56-16.64-2.56H224v28.16h15.36c7.68 0 12.8-1.28 16.64-3.84 2.56-2.56 5.12-6.4 5.12-10.24-1.28-6.4-2.56-8.96-6.4-11.52zm2.56 51.2c-2.56-2.56-8.96-3.84-17.92-3.84h-16.64v33.28h17.92c7.68 0 14.08-1.28 16.64-5.12 2.56-3.84 5.12-7.68 5.12-12.8s-1.28-8.96-5.12-11.52zm101.12 6.4c-8.96 0-14.08 1.28-17.92 5.12-3.84 2.56-5.12 6.4-5.12 11.52 0 3.84 1.28 7.68 3.84 8.96 2.56 1.28 5.12 2.56 8.96 2.56 6.4 0 10.24-1.28 14.08-5.12s6.4-7.68 6.4-14.08v-7.68l-10.24-1.28zm354.56-29.44c-2.56-3.84-7.68-6.4-14.08-6.4-5.12 0-8.96 1.28-12.8 5.12s-5.12 8.96-6.4 15.36h37.12c0-6.4-1.28-10.24-3.84-14.08zm0 0c-2.56-3.84-7.68-6.4-14.08-6.4-5.12 0-8.96 1.28-12.8 5.12s-5.12 8.96-6.4 15.36h37.12c0-6.4-1.28-10.24-3.84-14.08zM358.4 531.2c-8.96 0-14.08 1.28-17.92 5.12-3.84 2.56-5.12 6.4-5.12 11.52 0 3.84 1.28 7.68 3.84 8.96 2.56 1.28 5.12 2.56 8.96 2.56 6.4 0 10.24-1.28 14.08-5.12s6.4-7.68 6.4-14.08v-7.68l-10.24-1.28zm-101.12-6.4c-2.56-2.56-8.96-3.84-17.92-3.84h-16.64v33.28h17.92c7.68 0 14.08-1.28 16.64-5.12 2.56-3.84 5.12-7.68 5.12-12.8s-1.28-8.96-5.12-11.52zm-2.56-51.2c-3.84-2.56-8.96-2.56-16.64-2.56H224v28.16h15.36c7.68 0 12.8-1.28 16.64-3.84 2.56-2.56 5.12-6.4 5.12-10.24-1.28-6.4-2.56-8.96-6.4-11.52zm0 0c-3.84-2.56-8.96-2.56-16.64-2.56H224v28.16h15.36c7.68 0 12.8-1.28 16.64-3.84 2.56-2.56 5.12-6.4 5.12-10.24-1.28-6.4-2.56-8.96-6.4-11.52zm2.56 51.2c-2.56-2.56-8.96-3.84-17.92-3.84h-16.64v33.28h17.92c7.68 0 14.08-1.28 16.64-5.12 2.56-3.84 5.12-7.68 5.12-12.8s-1.28-8.96-5.12-11.52zm101.12 6.4c-8.96 0-14.08 1.28-17.92 5.12-3.84 2.56-5.12 6.4-5.12 11.52 0 3.84 1.28 7.68 3.84 8.96 2.56 1.28 5.12 2.56 8.96 2.56 6.4 0 10.24-1.28 14.08-5.12s6.4-7.68 6.4-14.08v-7.68l-10.24-1.28zm354.56-29.44c-2.56-3.84-7.68-6.4-14.08-6.4-5.12 0-8.96 1.28-12.8 5.12s-5.12 8.96-6.4 15.36h37.12c0-6.4-1.28-10.24-3.84-14.08zm0 0c-2.56-3.84-7.68-6.4-14.08-6.4-5.12 0-8.96 1.28-12.8 5.12s-5.12 8.96-6.4 15.36h37.12c0-6.4-1.28-10.24-3.84-14.08zM358.4 531.2c-8.96 0-14.08 1.28-17.92 5.12-3.84 2.56-5.12 6.4-5.12 11.52 0 3.84 1.28 7.68 3.84 8.96 2.56 1.28 5.12 2.56 8.96 2.56 6.4 0 10.24-1.28 14.08-5.12s6.4-7.68 6.4-14.08v-7.68l-10.24-1.28zm-101.12-6.4c-2.56-2.56-8.96-3.84-17.92-3.84h-16.64v33.28h17.92c7.68 0 14.08-1.28 16.64-5.12 2.56-3.84 5.12-7.68 5.12-12.8s-1.28-8.96-5.12-11.52zm-2.56-29.44c2.56-2.56 5.12-6.4 5.12-10.24 0-5.12-1.28-8.96-5.12-10.24-3.84-2.56-8.96-2.56-16.64-2.56H224v26.88h15.36c7.68 0 12.8-1.28 15.36-3.84zM0 256v512h1024V256H0zm277.76 309.76c-7.68 6.4-19.2 10.24-34.56 10.24h-47.36V448h39.68c16.64 0 30.72 2.56 38.4 7.68 8.96 5.12 12.8 12.8 12.8 25.6 0 7.68-1.28 14.08-5.12 17.92-3.84 5.12-7.68 7.68-14.08 8.96v1.28l11.52 3.84c3.84 2.56 6.4 5.12 7.68 8.96 2.56 3.84 2.56 8.96 2.56 16.64 1.28 11.52-2.56 20.48-11.52 26.88zM395.52 576h-19.2l-5.12-12.8c-3.84 5.12-8.96 8.96-12.8 11.52-5.12 2.56-11.52 3.84-19.2 3.84-8.96 0-15.36-2.56-21.76-7.68-5.12-5.12-8.96-12.8-8.96-23.04s3.84-17.92 11.52-23.04c7.68-5.12 17.92-7.68 33.28-7.68h16.64v-3.84c0-5.12-1.28-8.96-3.84-11.52-2.56-2.56-6.4-3.84-11.52-3.84s-8.96 1.28-14.08 2.56c-5.12 1.28-8.96 2.56-14.08 5.12l-8.96-17.92c5.12-2.56 11.52-5.12 17.92-6.4 6.4-1.28 12.8-2.56 20.48-2.56 12.8 0 23.04 2.56 29.44 8.96 7.68 5.12 10.24 14.08 10.24 25.6V576zm117.76 0H486.4v-57.6c0-7.68-1.28-12.8-3.84-15.36-2.56-3.84-6.4-5.12-11.52-5.12-7.68 0-14.08 2.56-16.64 8.96-2.56 5.12-3.84 14.08-3.84 24.32V576H422.4v-97.28h20.48l3.84 12.8H448c2.56-5.12 7.68-8.96 12.8-11.52 5.12-2.56 11.52-3.84 17.92-3.84 10.24 0 19.2 2.56 25.6 8.96 6.4 5.12 8.96 14.08 8.96 26.88v64zm117.76 0h-26.88v-57.6c0-7.68-1.28-12.8-3.84-15.36-2.56-3.84-6.4-5.12-11.52-5.12-7.68 0-14.08 2.56-16.64 8.96-2.56 5.12-5.12 14.08-5.12 24.32V576h-26.88v-97.28h20.48l3.84 12.8h1.28c2.56-5.12 7.68-8.96 12.8-11.52 5.12-2.56 11.52-3.84 16.64-3.84 10.24 0 19.2 2.56 25.6 8.96 6.4 5.12 8.96 14.08 8.96 26.88v64zm111.36-42.24h-62.72c0 7.68 2.56 12.8 6.4 17.92 3.84 3.84 10.24 6.4 17.92 6.4 6.4 0 11.52-1.28 16.64-1.28 5.12-1.28 10.24-3.84 15.36-6.4v20.48c-5.12 2.56-10.24 3.84-15.36 5.12-5.12 1.28-11.52 1.28-19.2 1.28-10.24 0-17.92-1.28-25.6-5.12s-12.8-8.96-17.92-16.64c-3.84-7.68-6.4-16.64-6.4-28.16s2.56-20.48 6.4-28.16c3.84-7.68 8.96-12.8 16.64-17.92 6.4-3.84 15.36-5.12 24.32-5.12 12.8 0 24.32 3.84 32 11.52s11.52 19.2 11.52 33.28v12.8zm83.2-32h-7.68c-5.12 0-8.96 1.28-12.8 2.56s-7.68 3.84-10.24 7.68c-2.56 3.84-3.84 8.96-3.84 14.08V576h-26.88v-97.28h20.48l3.84 16.64h1.28c2.56-5.12 6.4-8.96 11.52-12.8 5.12-3.84 10.24-5.12 17.92-5.12h8.96l-2.56 24.32zm-126.72-6.4c-5.12 0-8.96 1.28-12.8 5.12s-5.12 8.96-6.4 15.36h37.12c0-6.4-1.28-10.24-5.12-15.36-2.56-3.84-6.4-5.12-12.8-5.12zm-358.4 39.68c-3.84 2.56-5.12 6.4-5.12 11.52 0 3.84 1.28 7.68 3.84 8.96 2.56 1.28 5.12 2.56 8.96 2.56 6.4 0 10.24-1.28 14.08-5.12s6.4-7.68 6.4-14.08v-7.68H358.4c-8.96 0-15.36 1.28-17.92 3.84zm-99.84-14.08H224v33.28h17.92c7.68 0 14.08-1.28 16.64-5.12 2.56-3.84 5.12-7.68 5.12-12.8s-1.28-8.96-5.12-11.52c-3.84-2.56-10.24-3.84-17.92-3.84zm14.08-25.6c2.56-2.56 5.12-6.4 5.12-10.24 0-5.12-1.28-8.96-5.12-10.24-3.84-2.56-8.96-2.56-16.64-2.56H224v26.88h15.36c7.68 0 12.8-1.28 15.36-3.84zm0-21.76c-3.84-2.56-8.96-2.56-16.64-2.56H224v28.16h15.36c7.68 0 12.8-1.28 16.64-3.84 2.56-2.56 5.12-6.4 5.12-10.24-1.28-6.4-2.56-8.96-6.4-11.52zm2.56 51.2c-2.56-2.56-8.96-3.84-17.92-3.84h-16.64v33.28h17.92c7.68 0 14.08-1.28 16.64-5.12 2.56-3.84 5.12-7.68 5.12-12.8s-1.28-8.96-5.12-11.52zm101.12 6.4c-8.96 0-14.08 1.28-17.92 5.12-3.84 2.56-5.12 6.4-5.12 11.52 0 3.84 1.28 7.68 3.84 8.96 2.56 1.28 5.12 2.56 8.96 2.56 6.4 0 10.24-1.28 14.08-5.12s6.4-7.68 6.4-14.08v-7.68l-10.24-1.28zm354.56-29.44c-2.56-3.84-7.68-6.4-14.08-6.4-5.12 0-8.96 1.28-12.8 5.12s-5.12 8.96-6.4 15.36h37.12c0-6.4-1.28-10.24-3.84-14.08zm0 0c-2.56-3.84-7.68-6.4-14.08-6.4-5.12 0-8.96 1.28-12.8 5.12s-5.12 8.96-6.4 15.36h37.12c0-6.4-1.28-10.24-3.84-14.08zM358.4 531.2c-8.96 0-14.08 1.28-17.92 5.12-3.84 2.56-5.12 6.4-5.12 11.52 0 3.84 1.28 7.68 3.84 8.96 2.56 1.28 5.12 2.56 8.96 2.56 6.4 0 10.24-1.28 14.08-5.12s6.4-7.68 6.4-14.08v-7.68l-10.24-1.28zm-101.12-6.4c-2.56-2.56-8.96-3.84-17.92-3.84h-16.64v33.28h17.92c7.68 0 14.08-1.28 16.64-5.12 2.56-3.84 5.12-7.68 5.12-12.8s-1.28-8.96-5.12-11.52zm-2.56-51.2c-3.84-2.56-8.96-2.56-16.64-2.56H224v28.16h15.36c7.68 0 12.8-1.28 16.64-3.84 2.56-2.56 5.12-6.4 5.12-10.24-1.28-6.4-2.56-8.96-6.4-11.52zm0 0c-3.84-2.56-8.96-2.56-16.64-2.56H224v28.16h15.36c7.68 0 12.8-1.28 16.64-3.84 2.56-2.56 5.12-6.4 5.12-10.24-1.28-6.4-2.56-8.96-6.4-11.52zm2.56 51.2c-2.56-2.56-8.96-3.84-17.92-3.84h-16.64v33.28h17.92c7.68 0 14.08-1.28 16.64-5.12 2.56-3.84 5.12-7.68 5.12-12.8s-1.28-8.96-5.12-11.52zm101.12 6.4c-8.96 0-14.08 1.28-17.92 5.12-3.84 2.56-5.12 6.4-5.12 11.52 0 3.84 1.28 7.68 3.84 8.96 2.56 1.28 5.12 2.56 8.96 2.56 6.4 0 10.24-1.28 14.08-5.12s6.4-7.68 6.4-14.08v-7.68l-10.24-1.28zm354.56-29.44c-2.56-3.84-7.68-6.4-14.08-6.4-5.12 0-8.96 1.28-12.8 5.12s-5.12 8.96-6.4 15.36h37.12c0-6.4-1.28-10.24-3.84-14.08zm0 0c-2.56-3.84-7.68-6.4-14.08-6.4-5.12 0-8.96 1.28-12.8 5.12s-5.12 8.96-6.4 15.36h37.12c0-6.4-1.28-10.24-3.84-14.08zM358.4 531.2c-8.96 0-14.08 1.28-17.92 5.12-3.84 2.56-5.12 6.4-5.12 11.52 0 3.84 1.28 7.68 3.84 8.96 2.56 1.28 5.12 2.56 8.96 2.56 6.4 0 10.24-1.28 14.08-5.12s6.4-7.68 6.4-14.08v-7.68l-10.24-1.28zm-101.12-6.4c-2.56-2.56-8.96-3.84-17.92-3.84h-16.64v33.28h17.92c7.68 0 14.08-1.28 16.64-5.12 2.56-3.84 5.12-7.68 5.12-12.8s-1.28-8.96-5.12-11.52zm-2.56-51.2c-3.84-2.56-8.96-2.56-16.64-2.56H224v28.16h15.36c7.68 0 12.8-1.28 16.64-3.84 2.56-2.56 5.12-6.4 5.12-10.24-1.28-6.4-2.56-8.96-6.4-11.52zm0 0c-3.84-2.56-8.96-2.56-16.64-2.56H224v28.16h15.36c7.68 0 12.8-1.28 16.64-3.84 2.56-2.56 5.12-6.4 5.12-10.24-1.28-6.4-2.56-8.96-6.4-11.52zm2.56 51.2c-2.56-2.56-8.96-3.84-17.92-3.84h-16.64v33.28h17.92c7.68 0 14.08-1.28 16.64-5.12 2.56-3.84 5.12-7.68 5.12-12.8s-1.28-8.96-5.12-11.52zm-2.56-51.2c-3.84-2.56-8.96-2.56-16.64-2.56H224v28.16h15.36c7.68 0 12.8-1.28 16.64-3.84 2.56-2.56 5.12-6.4 5.12-10.24-1.28-6.4-2.56-8.96-6.4-11.52zm2.56 51.2c-2.56-2.56-8.96-3.84-17.92-3.84h-16.64v33.28h17.92c7.68 0 14.08-1.28 16.64-5.12 2.56-3.84 5.12-7.68 5.12-12.8s-1.28-8.96-5.12-11.52zm101.12 6.4c-8.96 0-14.08 1.28-17.92 5.12-3.84 2.56-5.12 6.4-5.12 11.52 0 3.84 1.28 7.68 3.84 8.96 2.56 1.28 5.12 2.56 8.96 2.56 6.4 0 10.24-1.28 14.08-5.12s6.4-7.68 6.4-14.08v-7.68l-10.24-1.28zm0 0c-8.96 0-14.08 1.28-17.92 5.12-3.84 2.56-5.12 6.4-5.12 11.52 0 3.84 1.28 7.68 3.84 8.96 2.56 1.28 5.12 2.56 8.96 2.56 6.4 0 10.24-1.28 14.08-5.12s6.4-7.68 6.4-14.08v-7.68l-10.24-1.28zm354.56-29.44c-2.56-3.84-7.68-6.4-14.08-6.4-5.12 0-8.96 1.28-12.8 5.12s-5.12 8.96-6.4 15.36h37.12c0-6.4-1.28-10.24-3.84-14.08zm0 0c-2.56-3.84-7.68-6.4-14.08-6.4-5.12 0-8.96 1.28-12.8 5.12s-5.12 8.96-6.4 15.36h37.12c0-6.4-1.28-10.24-3.84-14.08z"/><path d="M448 736a6.4 6.4 0 1 0 12.8 0 6.4 6.4 0 1 0-12.8 0z"/><path d="M486.40000000000003 736a6.4 6.4 0 1 0 12.8 0 6.4 6.4 0 1 0-12.8 0zM524.8000000000001 736a6.4 6.4 0 1 0 12.8 0 6.4 6.4 0 1 0-12.8 0zM563.2 736a6.4 6.4 0 1 0 12.8 0 6.4 6.4 0 1 0-12.8 0z" opacity=".5"/></svg>