<svg class="icon" viewBox="0 0 1024 1024" xmlns="http://www.w3.org/2000/svg" width="128" height="128"><defs><style/></defs><path d="M625.394 937.881l52.214 21.775 36.2-57.885c16.286 2.541 32.481 2.541 48.404.227l36.428 57.839 52.396-21.504-15.378-66.322c13.065-9.481 24.678-20.959 34.659-34.251l66.322 15.061 21.865-52.259-57.431-35.838a162.455 162.455 0 0 0 .317-48.721l57.522-35.566-21.367-52.396-66.141 14.381c-9.527-13.065-21.095-24.814-34.478-34.794l15.515-65.642-52.214-21.82-36.654 56.75a162.458 162.458 0 0 0-48.949-.137l-35.429-57.431-52.486 21.458 14.425 66.187c-13.02 9.617-24.633 21.095-34.523 34.432l-66.005-15.515-21.775 52.214 57.25 36.881c-2.449 16.286-2.404 32.707.091 48.584l-57.794 36.428 21.504 52.35 66.414-15.378c9.527 12.884 20.959 24.497 34.16 34.296l-15.061 66.596zm40.284-228.637c16.831-40.193 63.012-59.2 103.34-42.37 40.193 16.831 59.11 63.103 42.28 103.34-16.877 40.239-63.057 59.2-103.34 42.37-40.148-16.831-59.11-63.103-42.28-103.34zM317.46 650.861h74.034l14.425-88.097c20.822-5.217 40.465-13.382 58.431-24.224l73.218 51.352 52.305-52.35-51.988-72.22c10.932-18.054 19.234-37.743 24.451-58.793l87.688-15.332v-74.034l-87.417-14.245c-5.127-21.049-13.336-40.873-24.179-58.929l51.397-72.038-52.305-52.396-72.447 50.671c-18.146-10.932-37.924-19.28-59.11-24.542l-14.471-87.008h-74.034l-15.378 86.919c-21.14 5.262-40.965 13.564-59.155 24.588l-71.812-51.397-52.396 52.35 50.808 72.583c-10.887 18.146-19.143 37.878-24.315 58.929l-87.463 14.517v74.08l87.688 15.56a212.499 212.499 0 0 0 24.542 58.611l-51.307 73.037 52.396 52.35 72.402-52.124c18.009 10.797 37.607 19.008 58.52 24.134l15.469 88.052zm-66.821-296.048c0-57.024 46.227-103.249 103.249-103.249s103.204 46.227 103.204 103.249-46.227 103.204-103.204 103.204c-57.024 0-103.249-46.18-103.249-103.204z"/></svg>