<svg class="icon" viewBox="0 0 1024 1024" xmlns="http://www.w3.org/2000/svg" width="64" height="64"><defs><style/></defs><path d="M438.857 950.857h512V585.143H713.143q-22.82 0-38.839-16.018t-16.018-38.84V292.572H438.857v658.286zM585.143 128V91.429q0-7.461-5.413-12.874t-12.873-5.412H164.571q-7.46 0-12.873 5.412t-5.412 12.874V128q0 7.46 5.412 12.873t12.873 5.413h402.286q7.46 0 12.873-5.413T585.143 128zm146.286 384H902.29L731.43 341.138V512zM1024 585.143v384q0 22.82-16.018 38.839T969.142 1024h-548.57q-22.821 0-38.84-16.018t-16.018-38.84v-91.428H54.857q-22.82 0-38.839-16.018T0 822.857v-768q0-22.82 16.018-38.839T54.858 0H676.57q22.821 0 38.84 16.018t16.018 38.84v187.464q11.995 7.46 20.553 16.019l233.18 233.179q16.017 16.018 27.428 43.447t11.41 50.322z"/></svg>