<svg class="icon" viewBox="0 0 1024 1024" xmlns="http://www.w3.org/2000/svg" width="200" height="200"><defs><style/></defs><path d="M947.2 1024H76.8C38.4 1024 0 992 0 953.6V172.8c0-38.4 38.4-70.4 76.8-70.4h38.4v102.4c0 38.4 38.4 70.4 76.8 70.4h76.8c44.8 0 76.8-32 76.8-70.4V102.4h313.6v102.4c0 38.4 38.4 70.4 76.8 70.4h76.8c44.8 0 76.8-32 76.8-70.4V102.4H928c44.8 0 76.8 32 76.8 70.4V960c19.2 32-19.2 64-57.6 64zM352 339.2H115.2V512H352V339.2zm0 204.8H115.2v172.8H352V544zm0 204.8H115.2v172.8H352V748.8zm275.2-409.6H396.8V512h236.8V339.2zm0 204.8H396.8v172.8h236.8V544zm0 204.8H396.8v172.8h236.8V748.8zm281.6-409.6H672V512h236.8V339.2zm0 204.8H672v172.8h236.8V544zm0 204.8H672v172.8h236.8V748.8zm-121.6-512c-44.8 0-76.8-32-76.8-70.4v-96C710.4 32 748.8 0 787.2 0S864 32 864 70.4v102.4c0 38.4-32 64-76.8 64zm-550.4 0c-44.8 0-76.8-25.6-76.8-64V70.4C160 32 192 0 236.8 0s76.8 32 76.8 70.4v102.4c0 38.4-32 64-76.8 64z"/></svg>