<svg class="icon" viewBox="0 0 1024 1024" xmlns="http://www.w3.org/2000/svg" width="200" height="200"><defs><style/></defs><path d="M768.355 416a256 256 0 1 0-512 0 192 192 0 1 0 0 384v64a256 256 0 0 1-58.88-505.216 320.128 320.128 0 0 1 629.76 0A256.128 256.128 0 0 1 768.355 864v-64a192 192 0 0 0 0-384zm-512 384h64v64h-64v-64zm448 0h64v64h-64v-64z"/><path d="M539.043 845.248V512.192a32.448 32.448 0 0 0-32-32.192c-17.664 0-32 14.912-32 32.192v333.056l-36.096-36.096a32.192 32.192 0 0 0-45.056.192 31.616 31.616 0 0 0-.192 45.056l90.88 90.944a31.36 31.36 0 0 0 22.528 9.088 30.08 30.08 0 0 0 22.4-9.088l90.88-90.88a32.192 32.192 0 0 0-.192-45.12 31.616 31.616 0 0 0-45.056-.192l-36.096 36.096z"/></svg>