<svg class="icon" viewBox="0 0 1024 1024" xmlns="http://www.w3.org/2000/svg" width="128" height="128"><defs><style/></defs><path d="M908.288 360.96v-61.44c0-52.736-41.984-111.616-97.792-111.616H528.384l-11.776-22.016c-11.776-22.016-34.304-35.84-59.392-35.84H156.16c-50.176 0-91.136 41.984-91.136 93.696v573.44c0 51.712 40.96 93.696 91.136 93.696h708.608c50.176 0 91.136-41.984 91.136-93.696V444.928c0-30.72-20.48-62.976-47.616-83.968zm-97.792-116.736c19.456 0 41.472 29.696 41.472 55.808v38.912H607.744l-49.664-94.72h252.416zm89.088 552.448c0 20.48-15.872 37.376-34.816 37.376H156.16c-19.456 0-34.816-16.896-34.816-37.376v-573.44c0-20.48 15.872-37.376 34.816-37.376h301.056c4.096 0 7.68 2.048 9.728 6.144l99.328 187.904c5.12 9.216 14.336 14.848 25.088 14.848h258.048c19.968 0 50.176 30.208 50.176 50.176v351.744z"/></svg>