<svg class="icon" viewBox="0 0 1024 1024" xmlns="http://www.w3.org/2000/svg" width="32" height="32"><defs><style/></defs><path d="M666.298 824.087c-12.567-30.72-54.225-83.316-123.578-156.392-18.618-19.55-17.455-34.444-10.705-78.895v-5.12c4.421-30.487 12.101-48.407 114.501-64.698 52.131-8.146 65.63 12.567 84.713 41.425l6.284 9.542a101.004 101.004 0 0 0 51.432 41.658c9.077 4.19 20.248 9.31 35.375 17.92 36.77 20.248 36.77 43.288 36.77 94.022v5.818a215.273 215.273 0 0 1-41.425 139.637 472.436 472.436 0 0 1-152.203 88.203c27.927-52.363 6.516-114.502 0-132.422zM512 40.96a468.015 468.015 0 0 1 203.87 46.545 434.502 434.502 0 0 0-102.866 82.619c-7.448 10.24-13.731 19.781-19.782 28.625-19.55 29.556-29.091 42.822-46.546 44.916a200.844 200.844 0 0 1-33.745 0c-34.211-2.327-80.756-5.12-95.651 35.375-9.542 25.833-11.17 95.65 19.55 131.956a32.35 32.35 0 0 1 2.56 28.626 56.087 56.087 0 0 1-16.525 25.833 151.505 151.505 0 0 1-23.272-23.273 151.273 151.273 0 0 0-66.56-52.83c-10.008-2.792-21.178-5.12-31.884-7.447-30.254-6.283-64.233-13.498-72.145-30.487a119.156 119.156 0 0 1-5.819-46.545 175.476 175.476 0 0 0-11.17-74.008 70.982 70.982 0 0 0-44.451-39.563A469.644 469.644 0 0 1 512 40.96zM0 512A512 512 0 1 0 512 0 512 512 0 0 0 0 512z"/></svg>