<svg class="icon" viewBox="0 0 1024 1024" xmlns="http://www.w3.org/2000/svg" width="64" height="64"><defs><style/></defs><path d="M273.51 480.174l-1.198-3.727-.972-4.844-.646-2.652v-10.926l1.158-4.3 1.177-4.547 1.557-4.772 2.099-5.315 2.754-5.52 3.892-5.529v-3.87l.378-3.625.605-4.926 1.669-5.54 1.536-5.98 1.229-2.744 1.413-2.56 1.822-2.847 1.987-2.12v-13.67l1.147-7.045 1.157-8.182 2.058-9.79 2.837-10.188 2.11-5.601 2.088-6.093 2.294-5.683 2.744-6.093 2.796-6.666 3.215-6.247 3.615-6.666 4.557-6.656 2.109-3.82 2.243-3.123 4.884-7.045 5.028-7.025 5.704-7.229 6.113-7.035 6.635-6.932 6.923-7.127 8.376-7.69 5.314-4.68 6.482-5.049 6.574-4.454 7.107-4.28 6.83-3.81 7.7-3.154 8.182-3.88 8.13-2.663 8.111-2.765 8.765-2.744 8.756-2.089 9.205-1.74 9.34-1.506 9.215-1.229 9.206-1.26 9.82-.532h29.01l9.667 1.219 9.717 1.157 9.902 1.034 9.196 2.212 9.708 2.068 9.113 2.376 9.984 2.652 9.134 3.236 8.745 3.697 9.339 3.911 8.52 4.27 8.284 4.752 8.12 5.232 6.994 4.864 3.246 2.745 3.4 2.007 6.492 5.509 5.468 5.325 5.458 5.509 5.315 6.082 4.382 5.899 5.223 6.092 3.635 6.544 3.686 5.816 3.912 6.769 3.246 5.888 5.458 12.462 2.683 6.44 2.1 5.97 2.098 6.483 1.885 6.092 1.31 5.243 1.7 6.165 2.98 11.008 1.905 9.636 1.239 9.318 1.065 7.496 1.679 11.417.379 1.813 1.341 2.058 3.615 5.909 2.324 4.003 2.059 4.168 2.621 4.465 2.314 5.355 1.506 5.479 1.638 6.01 1.24 6.165.562 3.031.523 3.738v3.246l-.523 3.215v4.004l-.942 3.88-1.72 7.517-1.976 3.799-1.465 4.27v1.065l.697 1.321 1.966 3.123 8.56 12.667 6.759 9.513 3.236 6.349 4.362 6.953 3.799 7.618 4.383 8.141 4.382 9.155 4.936 10.363 2.785 6.348 2.54 6.206 2.191 6.543 2.16 5.888 1.65 6.185 1.679 5.806 2.12 11.326 1.679 11.57 1.157 10.261v14.48l-.778 5.13-1.106 8.858-1.516 7.956-2.355 7.22-.88 2.938-1.65 3.543-1.371 2.468-1.844 3.041-1.618 1.915-2.058 2.478-1.843 1.997-1.966 1.71-2.355 1.034-2.12 1.035-1.74.573H783.011l-1.7-.573-3.236-1.598-1.485-1.065-1.556-1.116-1.7-1.526-1.72-1.71-2.837-3.154-3.358-4.454-2.642-4.598-2.642-3.676-2.58-4.28-3.636-7.598-4.086-7.906-.481-.276h-.676l-1.659 1.239-.962 2.079-1.598 2.58-2.785 7.68-4.198 10.926-5.376 13.148-4.045 6.554-4.24 6.84-5.038 7.69-5.345 7.527-2.734 3.41-3.318 3.717-7.629 7.496.666.675 1.034 1.076 3.81 2.232 15.872 7.629 6.922 3.901 6.605 3.789 6.533 4.772 5.826 4.915 2.816 2.222 2.12 2.56 2.181 2.97 1.802 3.215.973 2.673 1.188 3.205.512 2.775.563 3.236-.563 2.17v2.202l-.512 2.273-1.188 2.08-.45 1.627-1.086 1.977-2.877 3.922-2.663 3.143-2.058 2.355-1.72 1.741-4.383 3.195-4.956 2.785-5.284 2.663-5.663 2.56-6.318 2.478-3.4 1.034-2.98.84-7.341 1.71-7.578 1.628-7.619 1.618-8.284 1.352-8.54.358-8.755 1.055h-27.177l-9.8-.574-9.124-.84-9.84-1.351-9.759-1.044-10.28-1.434-9.964-2.478-9.718-1.874-9.657-2.765-9.902-3.543-9.717-2.929-5.12-1.71-4.547-1.618-2.877-1.116-2.857-.604h-8.08l-9.339-.655-4.72-.482-6.083-.675-3.901 3.532-5.325 3.328-7.22 3.513-7.986 4.382-4.854 2.376-5.069 1.884-11.192 4.578-6.083 1.525-6.38 1.72-8.847 1.721-5.54.43-5.857.502-6.113.676-7.117.266H375.84l-16.415-.266-15.944-1.608-8.069-1.147-7.792-1.157-7.588-1.137-7.588-1.525-7.076-2.284-7.035-1.628-6.349-2.55-6-2.376-5.602-2.672-4.864-2.919-4.823-3.553-1.648-1.72-2.16-2.079-1.64-1.812-1.474-2.09-1.362-2.078-1.054-2.1-1.526-4.454-.533-2.304-.676-2.56v-2.365l.676-2.673v-2.652l.533-2.652v-5.356l.256-2.826 1.27-3.236 1.054-3.235 1.915-3.902 1.403-1.505 1.157-1.741 3.02-3.697 2.407-1.904 2.274-1.331 2.099-1.69 3.318-1.055 2.662-1.618 3.318-1.71 3.778-1.136 3.8-1.158 4.403-.962 4.167-.553 4.946-.645 5.366-.41 1.393-.46h.307l.676-.574v-.655l-.983-1.332-2.847-1.351-7.117-6.165-4.782-3.809-5.53-4.844-5.57-5.417-5.796-6.922-6.677-7.803-2.488-4.219-3.297-4.362-2.847-5.038-2.56-5.509-3.45-5.243-2.254-5.98-2.682-5.97-2.683-6.656-1.946-6.38-1.853-7.884-.553-.287h-.564l-.286-.563h-.686l-1.127.563-.563.287-.778 1.32-.277 1.608-.583 1.434-1.014 2.386-3.256 5.796-1.69 3.512-2.683 3.062-2.847 3.686-3.143 4.086-3.318 3.625-3.901 3.512-3.605 3.298-3.994 2.621-4.362 2.734-4.198 1.628-4.946 1.24-4.854.47h-1.147l-1.116-.47-.88-1.926-1.424-.942-1.864-4.567-1.167-2.468-1.25-3.543-1.033-3.676-.553-3.625-1.536-8.253-.584-4.864V635.72l.584-11.91.962-6.082 1.127-6.267 1.034-6.748 1.833-6.277 2.058-7.23 2.12-7.045 2.836-7.25 2.673-6.912 3.696-7.014 3.43-7.608 4.2-7.138 4.935-7.7 5.017-6.922 5.243-7.7 4.373-5.367 5.601-6.144 5.898-6.195 2.745-2.949 3.328-3.318 4.833-4.188 4.966-4.27 8.08-7.24 6.093-4.454z"/></svg>