<svg class="icon" viewBox="0 0 1024 1024" xmlns="http://www.w3.org/2000/svg" width="32" height="32"><defs><style/></defs><path d="M347.136 783.36q19.456 0 36.864 7.168t30.72 19.968 20.48 30.208 7.168 36.864-7.168 36.864-20.48 30.208T384 965.12t-36.864 7.68q-20.48 0-37.376-7.68t-30.208-20.48-20.48-30.208-7.168-36.864 7.168-36.864 20.48-30.208 30.208-19.968 37.376-7.168zm425.984 2.048q19.456 0 37.376 7.168t30.72 19.968 20.48 30.208 7.68 36.864-7.68 36.864-20.48 30.208-30.72 20.48-37.376 7.68-36.864-7.68-30.208-20.48-20.48-30.208-7.68-36.864 7.68-36.864 20.48-30.208 30.208-19.968 36.864-7.168zm172.032-581.632q28.672 0 44.544 7.68t22.528 18.944 6.144 24.064-3.584 22.016-12.8 37.888-22.016 62.976-24.064 68.096-17.92 53.248q-13.312 40.96-33.792 56.832t-50.176 15.872h-537.6l15.36 92.16h516.096q49.152 0 49.152 41.984 0 20.48-9.728 35.328t-38.4 14.848H312.32q-20.48 0-34.304-9.216t-23.04-24.064-14.848-32.256-8.704-32.768q-1.024-6.144-5.632-29.696t-11.264-58.88-14.848-78.848-16.384-87.552q-19.456-103.424-44.032-230.4h-76.8q-15.36 0-25.6-7.68T19.968 145.92t-9.216-23.04-2.56-22.528q0-20.48 13.824-33.792t37.376-13.312h103.424q20.48 0 32.768 6.144t19.456 15.36 10.24 19.456 5.12 17.408q2.048 8.192 4.096 23.04t4.096 30.208q3.072 18.432 6.144 38.912h700.416z"/></svg>