<svg class="icon" viewBox="0 0 1024 1024" xmlns="http://www.w3.org/2000/svg" width="128" height="128"><defs><style/></defs><path d="M320.158 564.399c-.66.88-1.319 1.786-1.62 2.886L267.34 761.32c-2.97 11.302.083 23.481 8.167 32.06 6.049 6.104 14.02 9.459 22.518 9.459 2.804 0 5.607-.33 8.358-1.1l186.336-52.545c.303 0 .44.275.66.275 2.145 0 4.263-.798 5.829-2.501l498.274-515.073c14.792-15.314 22.903-36.184 22.903-58.896 0-25.736-10.56-51.444-29.035-70.526l-47.045-48.721C925.829 34.644 900.917 23.7 876.06 23.7c-21.968 0-42.149 8.387-56.997 23.673L320.9 562.61c-.523.496-.384 1.212-.743 1.79m628.548-382.96l-49.493 51.14-80.203-84.272 48.774-50.427c7.699-8.029 22.658-6.846 31.511 2.338l47.101 48.721c4.894 5.087 7.696 11.823 7.696 18.505-.026 5.472-1.894 10.448-5.386 13.995M408.749 572.48l359.528-371.738 80.287 84.33-358.87 371.021-80.945-83.613zm-65.494 150.73l25.984-98.6 69.315 71.654-95.299 26.946zM980.27 385.566c-18.863 0-34.316 15.866-34.398 35.635V901.41c0 25.186-19.771 45.642-44.159 45.642H116.005c-24.361 0-44.213-20.458-44.213-45.642V117.596c0-25.213 19.852-45.67 44.213-45.67H622.03c18.972 0 34.37-15.946 34.37-35.55C656.402 16.8 641.006.85 622.032.85H110.753C51.39.85 3.054 50.783 3.054 112.208v794.644c0 61.425 48.337 111.33 107.699 111.33H906.91c59.418 0 107.7-49.905 107.7-111.33v-485.9c-.056-19.52-15.48-35.386-34.341-35.386"/></svg>