<svg class="icon" viewBox="0 0 1048 1024" xmlns="http://www.w3.org/2000/svg" width="131" height="128"><defs><style/></defs><path d="M52.466 182.01a89.8 89.8 0 0 1 109.997-87.491l191.906 44.272a45.057 45.057 0 0 0 22.483-.583l280.406-80.093a89.89 89.89 0 0 1 44.832-1.166l222.236 51.288a89.822 89.822 0 0 1 69.625 87.469v646.262a89.8 89.8 0 0 1-109.997 87.49l-191.906-44.271a45.057 45.057 0 0 0-22.484.583L389.16 965.885a89.89 89.89 0 0 1-44.878 1.166l-222.235-51.288a89.822 89.822 0 0 1-69.58-87.514V182.01zm44.832 0v646.24c0 20.959 14.459 39.116 34.858 43.846l222.213 51.266a45.057 45.057 0 0 0 22.483-.583l280.383-80.094a89.89 89.89 0 0 1 44.878-1.165l191.928 44.294a44.967 44.967 0 0 0 55.077-43.846v-646.24c0-20.937-14.459-39.094-34.857-43.824l-222.213-51.243a45.057 45.057 0 0 0-22.484.583l-280.405 80.07a89.89 89.89 0 0 1-44.878 1.166l-191.906-44.294a44.967 44.967 0 0 0-55.077 43.846z"/><path d="M343.878 186.964v739.738h44.832V186.964zm313.828-89.666v739.738h44.833V97.298z"/></svg>