<svg class="icon" viewBox="0 0 1024 1024" xmlns="http://www.w3.org/2000/svg" width="128" height="128"><defs><style/></defs><path d="M763.89 211.607l-50.833 50.898c-1.693.143-3.854.365-6.108.597-4.07.42-8.677.91-10.544.888l-.21-.083-.74-.013a95.407 95.407 0 0 0-13.213.688l-28.45 3.696-.686.037c-1.013.053-2.162.112-3.217.244l-1.262.157-.3.27-136.768 17.456-136.572-17.44-.277-.279-1.404-.167c-1.135-.134-2.257-.192-3.341-.248l-29.026-3.731a94.557 94.557 0 0 0-13.177-.683l-.76.013-.204.083h-.022c-1.923 0-6.83-.505-10.772-.911a378.719 378.719 0 0 0-5.804-.571l-50.93-50.899L62 408.945l96.321 154.362c2.72 5.06 15.65 28.884 20.505 33.723l220.752 220.636c8.502 8.573 19.454 13.489 30.05 13.489 7.805 0 14.867-2.78 19.868-7.814l9.486-9.438 6.278 6.29c5.983 6.025 14.195 9.344 23.126 9.344 8.06 0 16.182-2.666 23.184-7.561 7.044 4.894 15.198 7.561 23.267 7.561 8.944 0 17.15-3.32 23.081-9.331l6.309-6.299 9.427 9.427c5.045 5.045 12.12 7.822 19.922 7.822 10.589 0 21.558-4.913 30.09-13.476l220.63-220.644c4.857-4.84 17.817-28.673 20.538-33.728l96.387-154.362-197.33-197.339zM584.507 793.678c2.607-2.623 4.735-5.723 6.305-9.149 7.169 7.204 16.57 11.59 26.142 12.275l-7.115 7.142c-3.717 3.715-8.583 5.935-13.016 5.935-2.017 0-4.888-.464-7.097-2.66l-9.348-9.433 4.129-4.11zm33.474-18.527c-4.46 0-9.008-1.977-12.451-5.398 0 0-9.738-9.87-23.004-23.283l-3.598-3.647c-1.735-1.759-3.523-3.57-5.36-5.443-18.472-18.67-37.56-37.789-49.796-49.874a661.88 661.88 0 0 0-9.44-9.288c-7.087-6.802-7.087-6.802-8.98-6.802l-1.309.005-1.053.746-.266.206c-3.628 3.056-6.737 5.521-9.786 7.763l-3.795 2.793 19.55 19.532 49.86 49.926 13.064 12.96c.91 4.677-.287 9.272-3.235 12.2l-17.42 17.367-9.164 9.234c-2.798 2.794-6.225 3.385-8.609 3.385-3.268 0-6.742-1.111-9.74-3.102-.443-.304-.9-.583-1.356-.863-.709-.433-1.32-.806-1.75-1.247l-95.336-95.351-1.91.19c-5.922.588-11.291.807-16.87.673l-10.128-.248 44.558 44.596 17.683 17.647c2.312 5.264 1.856 10.599-1.21 13.717l-11.467 11.365-12.21 12.294c-2.216 2.213-5.073 2.677-7.078 2.677-4.415 0-9.272-2.22-12.983-5.932l-14.985-15.03-49.189-49.124-156.492-156.489c-4.306-5.488-62.719-103.954-102.103-170.784L259.246 243.93l41.394 42.103 7.11.397c5.46.344 11.317.895 16.981 1.426 5.746.54 11.176 1.05 16.285 1.371l74.63 9.561c-20.148 3.98-33.96 24.736-31.104 47.499l6.095 47.548c2.762 21.737 19.93 38.13 39.933 38.13 1.447 0 2.91-.09 4.353-.264 2.648-.124 38.187-1.77 62.922-2.647l.183-.011c.158-.013.31-.022.46-.031 1.322 1.411 2.454 2.587 3.093 3.212l187.01 186.995c3.1 3.093 4.809 7.233 4.809 11.654 0 4.424-1.71 8.572-4.812 11.678l-30.547 30.552c-3.102 3.115-7.242 4.83-11.66 4.83-4.413 0-8.542-1.715-11.64-4.838l-94.655-94.584-2.575 4.824c-2.81 5.264-5.351 9.811-7.775 13.905l-1.6 2.707 123.555 123.589c3.205 3.2 5.123 7.246 5.402 11.396.265 3.946-1.003 7.534-3.574 10.109l-26.53 26.582c-2.297 2.275-5.497 3.528-9.008 3.528zm51.663-81.262a311.856 311.856 0 0 1 4.524-4.666l30.58-30.526.348-.396c17.195-22.33 20.259-42.97-17.537-76.792L534.449 428.42l-1.22-1.279c-1.25-1.304-2.353-2.459-3.341-3.479l.029-.03c3.9-4 8.32-8.536 11.459-11.473.777-.73 1.767-1.646 2.524-2.273l9.33-7.699-120.93 5.241-.335.028c-.606.078-1.221.117-1.83.117-8.416 0-15.682-7.166-16.904-16.662l-6.032-47.556c-.7-5.321.667-10.666 3.749-14.667 2.605-3.378 6.219-5.516 10.18-6.02L512.073 311l64.238-8.21 105.83-13.568c5.152-.322 10.871-.858 16.402-1.377 5.645-.53 11.48-1.076 16.868-1.417l7.137-.399 41.362-42.1 168.59 168.59c-39.368 66.822-97.77 165.289-102.096 170.778L681.411 732.356c-.958-5.01-3.615-9.754-7.918-14.047l-14.908-15.05c3.562-1.53 6.788-4.905 11.059-9.37zM495.169 806.66c-1.718.573-3.466.872-5.154.872-3.409 0-6.41-1.177-8.642-3.374l-6.39-6.439a26.466 26.466 0 0 0 4.104-7.142l16.082 16.083z"/></svg>