<svg class="icon" viewBox="0 0 1024 1024" xmlns="http://www.w3.org/2000/svg" width="128" height="128"><defs><style/></defs><path d="M928.256 647.168h-84.48V512c0-38.912-31.744-70.656-70.656-70.656H251.392c-38.912 0-70.656 31.744-70.656 70.656v135.168h-87.04c-24.576 0-44.544 19.968-44.544 44.544V898.56c0 24.576 19.968 45.056 44.544 45.056h206.848c24.576 0 44.544-19.968 44.544-45.056V691.712c0-24.576-19.968-44.544-44.544-44.544h-80.896V512c0-17.408 14.336-31.744 31.744-31.744H773.12c17.408 0 31.744 14.336 31.744 31.744v135.168h-84.48c-24.576 0-45.056 19.968-45.056 44.544V898.56c0 24.576 19.968 45.056 45.056 45.056h206.848c24.576 0 45.056-19.968 45.056-45.056V691.712c.512-24.576-19.456-44.544-44.032-44.544zm-620.544 44.544V898.56c0 3.584-3.072 6.144-6.144 6.144H94.208c-3.584 0-6.144-3.072-6.144-6.656V691.2c0-3.584 3.072-6.144 6.144-6.144h206.848c3.584.512 6.656 3.072 6.656 6.656zM934.4 898.56c0 3.584-3.072 6.144-6.656 6.144H720.896c-3.584 0-6.144-3.072-6.144-6.144V691.712c0-3.584 3.072-6.144 6.144-6.144h206.848c3.584 0 6.656 3.072 6.656 6.144V898.56zM615.424 117.248v216.576H398.336V117.248h217.088m0-39.936H398.336c-22.016 0-39.936 17.92-39.936 39.936v216.576c0 22.016 17.92 39.936 39.936 39.936h217.088c22.016 0 39.936-17.92 39.936-39.936V117.248c0-22.016-17.92-39.936-39.936-39.936z"/></svg>