<svg class="icon" viewBox="0 0 1024 1024" xmlns="http://www.w3.org/2000/svg" width="32" height="32"><defs><style/></defs><path d="M0 202.7V631c0 83.3 68.3 150.7 152.6 150.7h228.9l8 190.3 224.9-190.3h257c84.3 0 152.6-67.4 152.6-150.7V202.7C1024 119.4 955.7 52 871.4 52H152.6C68.3 52 0 119.4 0 202.7zm658.6 237.9c0-39.7 32.1-71.4 72.3-71.4 40.2 0 72.3 31.7 72.3 71.4S771 512 730.9 512c-40.2 0-72.3-31.7-72.3-71.4zm-220.9 0c0-39.7 32.1-71.4 72.3-71.4 40.2 0 72.3 31.7 72.3 71.4S550.1 512 510 512c-40.2 0-72.3-31.7-72.3-71.4zm-216.8 0c0-39.7 32.1-71.4 72.3-71.4 40.2 0 72.3 31.7 72.3 71.4S333.3 512 293.1 512c-40.1 0-72.2-31.7-72.2-71.4z"/></svg>