<svg class="icon" viewBox="0 0 1024 1024" xmlns="http://www.w3.org/2000/svg" width="64" height="64"><defs><style/></defs><path d="M780.108 761.059c54.451 60.351 87.706 138.983 87.706 225.358 0 12.015-.659 23.882-1.902 35.581h-71.955c1.589-11.675 2.695-23.493 2.695-35.581 0-71.578-29.094-136.386-76.189-185.002C658.778 836.02 587.76 855.95 512 855.95c-75.689 0-146.65-19.888-208.294-54.432-47.129 48.604-76.358 113.305-76.358 184.9 0 12.088 1.105 23.906 2.695 35.581h-71.955a336.63 336.63 0 0 1-1.902-35.581c0-86.366 33.19-165.055 87.587-225.446-96.765-78.277-158.75-197.84-158.75-331.998C85.023 193.163 276.188 2.001 512 2.001s426.977 191.162 426.977 426.972c0 134.211-62.037 253.812-158.869 332.086zM512 295.787c-196.511 0-355.814-80.302-355.814 122.251 0 202.551 159.303 366.749 355.814 366.749s355.814-164.199 355.814-366.749c0-202.553-159.303-122.251-355.814-122.251zm166.047 204.349c-26.2 0-47.442-21.24-47.442-47.442 0-26.197 21.242-47.442 47.442-47.442 26.202 0 47.442 21.244 47.442 47.442-.001 26.202-21.24 47.442-47.442 47.442zm-23.721 130.465c0 32.754-63.722 59.302-142.326 59.302s-142.326-26.549-142.326-59.302c0-8.445 4.376-16.446 12.017-23.719 21.98 20.927 71.979 35.579 130.309 35.579s108.329-14.652 130.309-35.579c7.64 7.273 12.017 15.274 12.017 23.719zM345.953 500.136c-26.202 0-47.442-21.24-47.442-47.442 0-26.197 21.24-47.442 47.442-47.442 26.2 0 47.442 21.244 47.442 47.442 0 26.202-21.242 47.442-47.442 47.442z"/></svg>