<svg class="icon" viewBox="0 0 1024 1024" xmlns="http://www.w3.org/2000/svg" width="64" height="64"><defs><style/></defs><path d="M565.273 34.627L677.369 272.17c8.706 18.32 25.411 31.051 44.823 33.996l250.776 38.081c48.698 7.411 68.225 70.046 32.934 105.98L824.407 635.164c-13.998 14.23-20.352 34.815-17.059 54.935l42.82 261.127c8.346 50.696-42.643 89.452-86.226 65.519L539.634 893.474c-17.286-9.526-37.992-9.526-55.278 0l-224.314 123.27c-43.583 23.934-94.572-14.822-86.22-65.518L216.638 690.1c3.32-20.12-3.089-40.705-17.087-54.935L18.11 450.227c-35.285-35.934-15.818-98.574 32.934-105.98l250.75-38.081c19.35-2.94 36.082-15.675 44.756-33.996L458.673 34.627c21.825-46.168 84.836-46.168 106.6 0z"/></svg>