<svg class="icon" viewBox="0 0 1024 1024" xmlns="http://www.w3.org/2000/svg" width="200" height="200"><defs><style/></defs><path d="M619.364 933.396c1.373.064 2.682.192 4.055.192H932.71a65.67 65.67 0 0 0 65.606-65.606V150.974a65.67 65.67 0 0 0-65.606-65.606H623.419c-1.373 0-2.714.128-4.055.191V-.03L15.691 80.546v858.404l603.673 82.655v-88.21zm0-810.101c1.341-.192 2.682-.415 4.055-.415H932.71c15.516 0 28.126 12.61 28.126 28.126v717.008a28.158 28.158 0 0 1-28.126 28.126H623.419c-1.373 0-2.714-.224-4.055-.415V123.327zM248.33 605.429l-143.919-3.671v-23.402l86.869-133.255v-1.181l-78.92 1.308v-36.043l134.565-3.512v26.083l-87.507 133.735v1.149l88.912 1.405v37.352zm72.406 1.852l-44.759-1.15V404.94l44.76-1.15v203.492zm171.087-92.966c-16.665 15.356-41.151 22.06-69.341 21.868a113.813 113.813 0 0 1-16.122-1.053v74.354l-46.1-1.182V405.514c14.238-2.81 34.383-5.172 63.18-5.939 29.498-.766 50.793 4.31 65.19 15.293 13.888 10.44 23.306 27.966 23.306 48.845s-7.12 38.63-20.08 50.602zm-65.925-79.175a80.132 80.132 0 0 0-19.538 2.203v61.392c4.022.926 8.97 1.213 15.834 1.213 25.381-.032 41.216-12.898 41.216-34.479 0-19.379-13.632-30.712-37.48-30.297zM732.22 138.906h73.524v30.33H732.22v-30.33zm-73.556 45.398h73.524v30.36h-73.524v-30.36zm73.556 49.676h73.524v30.36H732.22v-30.36zm0 95.903h73.524v30.329H732.22v-30.33zm-73.556-48.718h73.524v30.329h-73.524v-30.329zm72.822 376.142a72.79 72.79 0 0 0 72.789-72.82L790.835 462.5c0-40.226-19.156-72.821-59.381-72.821s-59.35 32.595-59.35 72.821l-13.472 121.986a72.79 72.79 0 0 0 72.822 72.821zm-24.104-133.862h48.207v101.841h-48.207v-101.84z"/></svg>